<svg xmlns="http://www.w3.org/2000/svg" xml:space="preserve" width="504" height="504" viewBox="0 0 504 504"><defs><clipPath id="a" clipPathUnits="userSpaceOnUse"><path d="M0 602h690V0H0Z"/></clipPath></defs><g clip-path="url(#a)" transform="matrix(1.33333 0 0 -1.33333 -208 653.333)"><path d="M0 0c0-104.382-84.618-189-189-189S-378-104.382-378 0s84.618 189 189 189S0 104.382 0 0" style="fill:#d5d5d6;fill-opacity:1;fill-rule:nonzero;stroke:none" transform="translate(534 301)"/><path d="M0 0c0-98.487-79.839-178.326-178.326-178.326S-356.652-98.487-356.652 0s79.839 178.326 178.326 178.326S0 98.487 0 0" style="fill:#d00022;fill-opacity:1;fill-rule:nonzero;stroke:none" transform="translate(523.326 301)"/><path d="m0 0 14.597 6.158L0 12.316l-6.158 14.597-6.158-14.597-14.597-6.158L-12.316 0l6.158-14.597Z" style="fill:#d5d5d6;fill-opacity:1;fill-rule:nonzero;stroke:none" transform="translate(201.701 310.12)"/><path d="m0 0-14.597 6.158L0 12.316l6.158 14.597 6.158-14.597 14.597-6.158L12.316 0 6.158-14.597Z" style="fill:#d5d5d6;fill-opacity:1;fill-rule:nonzero;stroke:none" transform="translate(488.299 310.12)"/><path d="M0 0c0 66.76 54.12 120.881 120.881 120.881 66.76 0 120.88-54.121 120.88-120.881 0-66.76-54.12-120.881-120.88-120.881C54.12-120.881 0-66.76 0 0" style="fill:#fff;fill-opacity:1;fill-rule:nonzero;stroke:none" transform="translate(224.12 301)"/><path d="M0 0c-60.864 0-110.204 49.34-110.204 110.204 0 30.432 12.335 57.983 32.278 77.926l-7.549 7.55c-47.207-47.207-47.207-123.744 0-170.951 47.206-47.207 123.744-47.207 170.95 0l-7.549 7.549C57.983 12.335 30.432 0 0 0" style="fill:#d5d5d6;fill-opacity:1;fill-rule:nonzero;stroke:none" transform="translate(345 190.796)"/><path d="M0 0c0 60.864 49.34 110.204 110.204 110.204 60.864 0 110.204-49.34 110.204-110.204 0-60.864-49.34-110.204-110.204-110.204C49.34-110.204 0-60.864 0 0" style="fill:#d00022;fill-opacity:1;fill-rule:nonzero;stroke:none" transform="translate(234.796 301)"/><path d="m0 0 24.822-24.822C37.726-11.919 47.15 4.46 51.587 22.786Z" style="fill:#e83535;fill-opacity:1;fill-rule:nonzero;stroke:none" transform="translate(391.655 254.345)"/><path d="m0 0 6.635 24.763-18.209 15.279 67.615 5.915L28.992-54.986l26.28 2.3 23.99 54.012 9.267-52.415 48.425-10.833a101.345 101.345 0 0 1 2.713 23.339c0 55.827-45.257 101.084-101.084 101.084-27.913 0-53.184-11.315-71.477-29.607z" style="fill:#e83535;fill-opacity:1;fill-rule:nonzero;stroke:none" transform="translate(306.417 339.583)"/><path d="m0 0-6.033 34.123-16.229-36.535-40.602-3.552 27.049 100.943-40.34-3.53 8.508-7.139-35.625-132.953 79.009 13.745 4.466-25.259 16.408 36.938L32.645-7.302z" style="fill:#fff;fill-opacity:1;fill-rule:nonzero;stroke:none" transform="translate(388.757 282.577)"/><path d="m0 0-1.475 8.341L-60.748.345l31.823 118.761-22.967 7.242 8.508-7.14L-79.01-13.745z" style="fill:#d5d5d6;fill-opacity:1;fill-rule:nonzero;stroke:none" transform="translate(364.494 247.679)"/><path d="m0 0-4.101 23.193-11.152-25.106-10.29-4.545-43.762-4.415 10.428-9.212 32.192 4.432 9.128-2.042 4.101-23.193 11.152 25.106L22.188-4.963z" style="fill:#fac10b;fill-opacity:1;fill-rule:nonzero;stroke:none" transform="translate(384.62 278.407)"/><path d="m0 0 2.788-9.958 9.495-3.198-10.8-5.743-5.854-11.042-2.788 9.958-9.495 3.198 10.8 5.743z" style="fill:#004538;fill-opacity:1;fill-rule:nonzero;stroke:none" transform="translate(378.027 284.53)"/><path d="M0 0c3.579-2.1 4.703-5.105 2.681-8.55l-4.988-8.502c-1.759-2.998-4.88-4.114-8.684-1.882l-4.474 2.625 3.755 6.399 4.43-2.599 3.596 6.129-4.34 2.547-9.869-7.081c-2.432-1.58-3.925-1.667-6.744-.012l-4.788 2.809c-3.624 2.127-3.909 4.82-2.019 8.042l4.989 8.5c2.363 4.027 5.067 4.125 9.094 1.763l3.669-2.154-3.728-6.354-3.982 2.337L-25-2.113l3.849-2.257 9.664 7.141c2.484 1.67 3.925 1.666 6.878-.066z" style="fill:#fff;fill-opacity:1;fill-rule:nonzero;stroke:none" transform="translate(230.241 380.878)"/><path d="M0 0c3.044-2.823 3.494-6 .777-8.929l-6.704-7.227c-2.364-2.55-5.653-2.967-8.886.032l-3.804 3.528 5.045 5.44 3.767-3.493 4.833 5.212-3.69 3.422-11.165-4.788c-2.715-1.02-4.192-.782-6.589 1.44l-4.07 3.775c-3.081 2.859-2.779 5.55-.238 8.289l6.703 7.228c3.176 3.424 5.838 2.936 9.261-.239l3.119-2.893-5.009-5.402-3.386 3.14-4.834-5.211 3.272-3.035 10.976 4.892c2.786 1.096 4.193.782 6.704-1.546z" style="fill:#fff;fill-opacity:1;fill-rule:nonzero;stroke:none" transform="translate(250.22 403.772)"/><path d="m0 0-2.299 3.33-5.977-4.127L3.25-17.489l6.062 4.186-3.861 5.592-3.458-2.387-3.302 4.781 9.52 6.574 7.193-10.416c1.946-2.818 2.578-6.29-1.222-8.914l-8.11-5.601c-3.245-2.24-6.375-1.817-8.88 1.812L-14.895-4.359c-2.447 3.543-1.439 6.193 1.549 8.257l8.495 5.867c3.714 2.564 6.223 1.396 8.788-2.318l2.211-3.202Z" style="fill:#fff;fill-opacity:1;fill-rule:nonzero;stroke:none" transform="translate(259.636 431.25)"/><path d="m0 0 7.259 1.976 7.089-26.033 11.415 3.109 1.771-6.509-18.673-5.084z" style="fill:#fff;fill-opacity:1;fill-rule:nonzero;stroke:none" transform="translate(292.188 459.186)"/><path d="m0 0 5.44.299-3.12 14.222-.777-.043Zm6.829-6.069-7.512-.412-.64-6.323-7.616-.418 4.315 34.013 12.537.688 7.86-33.343-7.615-.419z" style="fill:#fff;fill-opacity:1;fill-rule:nonzero;stroke:none" transform="translate(334.193 446.078)"/><path d="m0 0-3.039 13.07c-.693 2.966-1.055 6.927-1.272 10.811-.481-3.656-.968-7.048-1.307-8.991L-7.976 1.393l-6.339 1.108 5.804 33.23 8.896-1.553 3.102-14.82c.781-3.666 1.261-7.859 1.496-11.641.394 3.461.839 6.913 1.249 9.265l2.742 15.695 6.39-1.116L9.56-1.67Z" style="fill:#fff;fill-opacity:1;fill-rule:nonzero;stroke:none" transform="translate(370.366 431.345)"/><path d="m0 0 7.94 18.555-6.725 2.879-7.94-18.555Zm-3.027 30.642 15.502-6.635c3.959-1.693 3.995-4.644 2.28-8.65L6.875-3.055C5.569-6.108 2.736-8.508-1.318-6.772l-14.978 6.41z" style="fill:#fff;fill-opacity:1;fill-rule:nonzero;stroke:none" transform="translate(403.184 427.86)"/><path d="m0 0 15.641-11.046-3.803-5.384-9.494 6.706-4.041-5.721 6.866-4.85-3.772-5.341-6.867 4.85-4.041-5.722 9.494-6.707-3.802-5.382-15.64 11.047z" style="fill:#fff;fill-opacity:1;fill-rule:nonzero;stroke:none" transform="translate(433.395 442.386)"/><path d="m0 0 7.647 7.091-4.834 5.213-7.646-7.092Zm-22.048-.492L2.681 22.442 14.466 9.735c2.293-2.472 1.768-4.729-1.352-7.622L4.744-5.65C2.271-7.943.34-8.531-1.523-7.286l-5.424-9.489-5.116 5.517 5.291 8.869-2.893 3.12-7.267-6.739z" style="fill:#fff;fill-opacity:1;fill-rule:nonzero;stroke:none" transform="translate(457 399.705)"/><path d="M0 0c-3.582-2.099-6.755-1.612-8.775 1.836l-4.984 8.51c-1.758 3-1.208 6.27 2.599 8.5l4.478 2.623 3.752-6.404-4.434-2.597 3.594-6.135L.574 8.878l-1.36 12.075c-.192 2.895.463 4.241 3.284 5.894l4.792 2.807c3.627 2.125 6.117 1.057 8.006-2.167l4.985-8.509c2.361-4.03 1.125-6.438-2.906-8.799l-3.671-2.152-3.726 6.36 3.986 2.335-3.594 6.135-3.851-2.256L8.031 8.675c.245-2.985-.462-4.241-3.418-5.973Z" style="fill:#fff;fill-opacity:1;fill-rule:nonzero;stroke:none" transform="translate(470.897 361.895)"/><path d="m0 0 6.893 2.452-2.245 6.307-6.892-2.453Zm-12.718-4.966 7.088 2.522-2.383 6.698-7.088-2.523zm-5.473-3.655-5.428 15.252L8.156 17.938 13.653 2.49c1.34-3.763-.394-5.703-4.06-7.007L3.531-6.674C1.771-7.3.242-7.183-.695-6.251-.708-8.072-1.836-9.08-3.938-9.827l-6.746-2.402c-2.787-.991-6.116-.303-7.507 3.608" style="fill:#fff;fill-opacity:1;fill-rule:nonzero;stroke:none" transform="translate(208.096 248.812)"/><path d="m0 0 2.903-4.61 10.918 9.632-.415.659Zm-1.989-8.917L-5.997-2.55l-5.838-2.511-4.064 6.455L15.93 14.137l6.691-10.625L-2.713-19.55l-4.064 6.454Z" style="fill:#fff;fill-opacity:1;fill-rule:nonzero;stroke:none" transform="translate(213.336 221.506)"/><path d="M0 0c-2.957-2.914-6.152-3.221-8.957-.374l-6.919 7.023c-2.44 2.476-2.71 5.781.433 8.877l3.696 3.642 5.208-5.286-3.66-3.606 4.99-5.064 3.585 3.533-4.282 11.37c-.897 2.759-.592 4.224 1.736 6.519l3.955 3.896c2.994 2.951 5.67 2.527 8.292-.134l6.92-7.023c3.278-3.327 2.671-5.964-.655-9.242l-3.031-2.986-5.172 5.248 3.29 3.242-4.99 5.064-3.179-3.132 4.394-11.188c.97-2.833.592-4.224-1.847-6.628Z" style="fill:#fff;fill-opacity:1;fill-rule:nonzero;stroke:none" transform="translate(238.85 181.014)"/><path d="m0 0 15.951-10.584-3.642-5.49-9.684 6.425-3.872-5.836 7.003-4.647-3.614-5.447-7.003 4.647-3.872-5.836L.95-33.193l-3.643-5.49-15.951 10.584z" style="fill:#fff;fill-opacity:1;fill-rule:nonzero;stroke:none" transform="translate(264.012 195.408)"/><path d="m0 0 2.689 6.804-6.224 2.46-2.69-6.804zm-4.629-12.842 2.765 6.996-6.61 2.612-2.766-6.996zm-.85-6.526-15.055 5.949 12.395 31.364 15.248-6.026c3.715-1.469 4.034-4.05 2.604-7.668L7.349-1.732C6.662-3.47 5.568-4.543 4.248-4.636c1.364-1.208 1.38-2.72.56-4.795L2.176-16.09c-1.087-2.75-3.795-4.804-7.655-3.278" style="fill:#fff;fill-opacity:1;fill-rule:nonzero;stroke:none" transform="translate(294.264 163.547)"/><path d="m0 0 5.382-.843-.082 14.56-.769.121Zm5.412-7.36-7.433 1.164-1.946-6.05-7.535 1.181 11.32 32.363 12.405-1.943.726-34.25-7.535 1.18z" style="fill:#fff;fill-opacity:1;fill-rule:nonzero;stroke:none" transform="translate(318.301 149.533)"/><path d="m0 0 7.515.4 1.434-26.949 11.817.629.358-6.737-19.33-1.029z" style="fill:#fff;fill-opacity:1;fill-rule:nonzero;stroke:none" transform="translate(342.857 167.964)"/><path d="m0 0 7.285 1.876 6.729-26.125 11.455 2.95 1.682-6.532-18.74-4.826z" style="fill:#fff;fill-opacity:1;fill-rule:nonzero;stroke:none" transform="translate(369.19 170.119)"/><path d="m0 0 3.862-5.78c1.902-2.848 2.524-6.3-1.488-8.981l-7.938-5.303c-3.278-2.19-6.401-1.718-8.851 1.949L-26.202-.471c-2.421 3.623-1.416 6.229 1.647 8.275l8.239 5.505c3.926 2.622 6.46 1.444 8.995-2.352l2.767-4.141-6.212-4.15-2.852 4.271-5.911-3.949 11.211-16.781 5.91 3.949-3.804 5.694z" style="fill:#fff;fill-opacity:1;fill-rule:nonzero;stroke:none" transform="translate(439.102 179.998)"/><path d="m0 0 5.261 5.379 19.292-18.867 8.272 8.458 4.823-4.717-13.534-13.838z" style="fill:#fff;fill-opacity:1;fill-rule:nonzero;stroke:none" transform="translate(433.4 201.547)"/><path d="m0 0 22.853-14.449c3.377-2.135 4.549-5.332 2.413-8.709l-5.464-8.641c-1.858-2.939-4.971-3.979-8.699-1.622l-23.028 14.56 3.993 6.317 22.809-14.422 3.938 6.228L-3.994-6.316z" style="fill:#fff;fill-opacity:1;fill-rule:nonzero;stroke:none" transform="translate(463.239 239.596)"/><path d="m0 0-7.088 2.519-2.38-6.697 7.088-2.519zm-12.996 4.178-6.893 2.45L-22.13.321l6.893-2.449zM6.551-.621l-5.42-15.252-31.775 11.292 5.49 15.448c1.338 3.764 3.905 4.173 7.572 2.87l6.061-2.154c1.76-.626 2.871-1.682 3.01-2.997 1.159 1.404 2.671 1.473 4.773.726l6.746-2.397c2.786-.991 4.933-3.626 3.543-7.536" style="fill:#fff;fill-opacity:1;fill-rule:nonzero;stroke:none" transform="translate(497.118 250.862)"/></g></svg>